<svg width="46" height="46" viewBox="0 0 46 46" fill="none" xmlns="http://www.w3.org/2000/svg">
<path d="M3.83331 17.25C3.83331 22.3333 5.85265 27.2084 9.4471 30.8029C13.0415 34.3973 17.9167 36.4167 23 36.4167C28.0833 36.4167 32.9584 34.3973 36.5529 30.8029C40.1473 27.2084 42.1666 22.3333 42.1666 17.25" stroke="url(#paint0_linear_9_30)" stroke-width="2" stroke-linecap="round" stroke-linejoin="round"/>
<path d="M23 36.4167C23 31.3334 25.0193 26.4582 28.6138 22.8638C32.2082 19.2693 37.0833 17.25 42.1666 17.25M3.83331 17.25C6.35032 17.25 8.84267 17.7458 11.1681 18.709C13.4935 19.6722 15.6064 21.084 17.3862 22.8638C19.166 24.6436 20.5778 26.7565 21.541 29.0819C22.5042 31.4073 23 33.8997 23 36.4167" stroke="url(#paint1_linear_9_30)" stroke-width="2" stroke-linecap="round" stroke-linejoin="round"/>
<path d="M23 7.66675C24.9316 9.51069 26.4432 11.7491 27.4322 14.2296C28.4211 16.7102 28.864 19.3747 28.7308 22.0417M17.2692 22.0417C17.136 19.3747 17.5789 16.7102 18.5678 14.2296C19.5568 11.7491 21.0684 9.51069 23 7.66675" stroke="url(#paint2_linear_9_30)" stroke-width="2" stroke-linecap="round" stroke-linejoin="round"/>
<defs>
<linearGradient id="paint0_linear_9_30" x1="3.83331" y1="26.8333" x2="42.1666" y2="26.8333" gradientUnits="userSpaceOnUse">
<stop stop-color="#2AF598"/>
<stop offset="1" stop-color="#009EFD"/>
</linearGradient>
<linearGradient id="paint1_linear_9_30" x1="3.83331" y1="26.8333" x2="42.1666" y2="26.8333" gradientUnits="userSpaceOnUse">
<stop stop-color="#2AF598"/>
<stop offset="1" stop-color="#009EFD"/>
</linearGradient>
<linearGradient id="paint2_linear_9_30" x1="17.246" y1="14.8542" x2="28.754" y2="14.8542" gradientUnits="userSpaceOnUse">
<stop stop-color="#2AF598"/>
<stop offset="1" stop-color="#009EFD"/>
</linearGradient>
</defs>
</svg>
